<svg width="29" height="36" viewBox="0 0 29 36" fill="none" xmlns="http://www.w3.org/2000/svg">
<path d="M28.6908 0.856737C28.648 0.760951 28.5782 0.679689 28.4901 0.622852C28.4019 0.566015 28.299 0.536057 28.1941 0.536629H12.8179C12.7255 0.536783 12.6347 0.560105 12.5537 0.60446C12.4727 0.648815 12.4041 0.712784 12.3543 0.790508L0.532356 19.5555C0.475442 19.6372 0.442189 19.733 0.436262 19.8324C0.430335 19.9318 0.451963 20.0309 0.498763 20.1188C0.545564 20.2067 0.61572 20.28 0.701501 20.3305C0.787283 20.3811 0.885359 20.407 0.984923 20.4054H9.45123L1.97836 35.031C1.93546 35.118 1.91529 35.2144 1.91975 35.3113C1.9242 35.4082 1.95313 35.5024 2.00384 35.5851C2.05455 35.6677 2.12537 35.7362 2.20971 35.7841C2.29405 35.832 2.38914 35.8577 2.48612 35.8589H5.79758C5.87419 35.8594 5.95006 35.844 6.02038 35.8136C6.09069 35.7832 6.15391 35.7385 6.206 35.6823L25.6001 14.7207C25.6771 14.6423 25.7289 14.5426 25.7489 14.4345C25.7689 14.3263 25.7561 14.2147 25.7122 14.1139C25.6683 14.0131 25.5954 13.9277 25.5026 13.8687C25.4099 13.8096 25.3016 13.7796 25.1917 13.7825H17.752L28.6025 1.44176C28.6725 1.36336 28.7181 1.26629 28.7338 1.16239C28.7494 1.0585 28.7345 0.95229 28.6908 0.856737Z" fill="#2B788B"/>
</svg>
