<svg width="217" height="71" viewBox="0 0 217 71" fill="none" xmlns="http://www.w3.org/2000/svg">
<path d="M28.6908 2.85674C28.648 2.76095 28.5782 2.67969 28.4901 2.62285C28.4019 2.56601 28.299 2.53606 28.1941 2.53663H12.8179C12.7255 2.53678 12.6347 2.56011 12.5537 2.60446C12.4727 2.64882 12.4041 2.71278 12.3543 2.79051L0.532356 21.5555C0.475442 21.6372 0.442189 21.733 0.436262 21.8324C0.430335 21.9318 0.451963 22.0309 0.498763 22.1188C0.545564 22.2067 0.61572 22.28 0.701501 22.3305C0.787283 22.3811 0.885359 22.407 0.984923 22.4054H9.45123L1.97836 37.031C1.93546 37.118 1.91529 37.2144 1.91975 37.3113C1.9242 37.4082 1.95313 37.5024 2.00384 37.5851C2.05455 37.6677 2.12537 37.7362 2.20971 37.7841C2.29405 37.832 2.38914 37.8577 2.48612 37.8589H5.79758C5.87419 37.8594 5.95006 37.844 6.02038 37.8136C6.09069 37.7832 6.15391 37.7385 6.206 37.6823L25.6001 16.7207C25.6771 16.6423 25.7289 16.5426 25.7489 16.4345C25.7689 16.3263 25.7561 16.2147 25.7122 16.1139C25.6683 16.0131 25.5954 15.9277 25.5026 15.8687C25.4099 15.8096 25.3016 15.7796 25.1917 15.7825H17.752L28.6025 3.44176C28.6725 3.36336 28.7181 3.26629 28.7338 3.16239C28.7494 3.0585 28.7345 2.95229 28.6908 2.85674Z" fill="#2B788B"/>
<path d="M62.4563 13.9966C66.1672 13.9966 69.2759 14.5174 71.7824 15.5591C74.3214 16.5682 76.2094 17.9516 77.4463 19.7094C78.7158 21.4347 79.3506 23.3715 79.3506 25.5199C79.3506 30.4026 77.6416 33.9507 74.2237 36.1642C70.8384 38.3452 66.2974 39.4357 60.6009 39.4357C55.8158 39.4357 51.6004 38.6382 47.9546 37.0431C44.3414 35.4156 41.721 32.6975 40.0934 28.889C41.8837 28.6286 43.8368 28.2054 45.9527 27.6195C48.1011 27.0335 50.0379 26.4313 51.7631 25.8128C52.4467 27.2126 53.407 28.2379 54.644 28.889C55.8809 29.5075 57.541 29.8167 59.6243 29.8167C61.8379 29.8167 63.6607 29.4586 65.093 28.7425C66.5578 28.0264 67.2902 27.0335 67.2902 25.764C67.2902 24.462 66.6555 23.3715 65.386 22.4926C64.1165 21.6137 62.1796 21.1742 59.5755 21.1742C57.8828 21.1742 56.3366 21.4835 54.9369 22.102C53.5372 22.6879 52.5281 23.5342 51.9096 24.641H40.6305C41.4117 21.2882 42.0953 17.675 42.6812 13.8013C43.2997 9.92768 43.6741 6.49349 43.8043 3.49874H78.0811V12.9713C74.4679 12.7434 71.0499 12.6132 67.8273 12.5806C64.6373 12.5155 60.1614 12.483 54.3998 12.483L53.9115 15.2173C56.3855 14.4035 59.2337 13.9966 62.4563 13.9966Z" fill="black"/>
<path d="M81.2934 3.44991H116.644V9.74864C110.264 19.4165 105.333 29.1494 101.85 38.9474H88.6663C92.2144 30.1259 96.8856 21.3533 102.68 12.6295C93.663 12.6295 86.5342 12.7922 81.2934 13.1177V3.44991Z" fill="black"/>
<path d="M138.181 13.9966C141.892 13.9966 145 14.5174 147.507 15.5591C150.046 16.5682 151.934 17.9516 153.171 19.7094C154.44 21.4347 155.075 23.3715 155.075 25.5199C155.075 30.4026 153.366 33.9507 149.948 36.1642C146.563 38.3452 142.022 39.4357 136.325 39.4357C131.54 39.4357 127.325 38.6382 123.679 37.0431C120.066 35.4156 117.445 32.6975 115.818 28.889C117.608 28.6286 119.561 28.2054 121.677 27.6195C123.825 27.0335 125.762 26.4313 127.488 25.8128C128.171 27.2126 129.131 28.2379 130.368 28.889C131.605 29.5075 133.265 29.8167 135.349 29.8167C137.562 29.8167 139.385 29.4586 140.817 28.7425C142.282 28.0264 143.015 27.0335 143.015 25.764C143.015 24.462 142.38 23.3715 141.11 22.4926C139.841 21.6137 137.904 21.1742 135.3 21.1742C133.607 21.1742 132.061 21.4835 130.661 22.102C129.262 22.6879 128.252 23.5342 127.634 24.641H116.355C117.136 21.2882 117.82 17.675 118.406 13.8013C119.024 9.92768 119.398 6.49349 119.529 3.49874H153.805V12.9713C150.192 12.7434 146.774 12.6132 143.552 12.5806C140.362 12.5155 135.886 12.483 130.124 12.483L129.636 15.2173C132.11 14.4035 134.958 13.9966 138.181 13.9966Z" fill="black"/>
<path d="M191.49 12.2388L179.381 23.2738C183.515 29.1331 187.372 34.3576 190.953 38.9474H178.014L175.523 34.9436C173.896 32.2418 172.822 30.484 172.301 29.6702L168.248 33.3811V38.9474H157.018C157.278 32.7626 157.408 26.4964 157.408 20.1489C157.408 13.7688 157.278 7.37238 157.018 0.959717H168.248V21.6625C171.406 18.4399 174.384 15.2987 177.183 12.2388H191.49Z" fill="black"/>
<path d="M208.291 17.561H216.982V27.0824H208.291V35.8225H198.77V27.0824H190.03V17.561H198.77V8.82092H208.291V17.561Z" fill="black"/>
<path d="M49.6095 63.2741L55.8681 49.366H58.4113L64.6899 63.2741H61.9877L56.6033 50.7369H57.6365L52.2719 63.2741H49.6095ZM52.4905 60.0554L53.1859 58.0288H60.6963L61.3917 60.0554H52.4905ZM70.1963 63.4132C69.0837 63.4132 68.0902 63.1814 67.216 62.7178C66.355 62.2409 65.6795 61.5919 65.1894 60.7706C64.6993 59.9494 64.4543 59.0156 64.4543 57.9691C64.4543 56.9095 64.6993 55.9756 65.1894 55.1676C65.6795 54.3464 66.355 53.704 67.216 53.2404C68.0902 52.7768 69.0837 52.545 70.1963 52.545C71.2295 52.545 72.1368 52.7569 72.9183 53.1808C73.7131 53.5914 74.3158 54.2007 74.7264 55.0087L72.819 56.1213C72.5011 55.618 72.1104 55.2471 71.6467 55.0087C71.1964 54.7703 70.7063 54.6511 70.1765 54.6511C69.5671 54.6511 69.0174 54.7835 68.5273 55.0484C68.0373 55.3134 67.6531 55.6975 67.375 56.2008C67.0968 56.6909 66.9577 57.2804 66.9577 57.9691C66.9577 58.6579 67.0968 59.254 67.375 59.7573C67.6531 60.2474 68.0373 60.6249 68.5273 60.8899C69.0174 61.1548 69.5671 61.2872 70.1765 61.2872C70.7063 61.2872 71.1964 61.168 71.6467 60.9296C72.1104 60.6912 72.5011 60.3203 72.819 59.8169L74.7264 60.9296C74.3158 61.7243 73.7131 62.3403 72.9183 62.7774C72.1368 63.2013 71.2295 63.4132 70.1963 63.4132ZM80.208 63.4132C79.0424 63.4132 78.1417 63.1152 77.5059 62.5191C76.8701 61.9098 76.5522 61.0157 76.5522 59.8368V50.3197H79.0358V59.7772C79.0358 60.2805 79.1616 60.6713 79.4133 60.9495C79.6782 61.2276 80.0424 61.3667 80.506 61.3667C81.0624 61.3667 81.526 61.221 81.8969 60.9296L82.5923 62.6979C82.3009 62.9363 81.9432 63.1152 81.5194 63.2344C81.0955 63.3536 80.6584 63.4132 80.208 63.4132ZM74.8037 54.7305V52.7437H81.877V54.7305H74.8037ZM83.8406 63.2741V52.6642H86.3242V63.2741H83.8406ZM85.0923 50.9157C84.6287 50.9157 84.2446 50.77 83.9399 50.4786C83.6485 50.1872 83.5028 49.8362 83.5028 49.4256C83.5028 49.0017 83.6485 48.6507 83.9399 48.3725C84.2446 48.0811 84.6287 47.9354 85.0923 47.9354C85.5559 47.9354 85.9334 48.0745 86.2248 48.3527C86.5295 48.6176 86.6818 48.9553 86.6818 49.366C86.6818 49.8031 86.5361 50.174 86.2447 50.4786C85.9533 50.77 85.5692 50.9157 85.0923 50.9157ZM91.6105 63.2741L87.0606 52.6642H89.6435L93.5577 62.0224H92.2861L96.3393 52.6642H98.7235L94.1736 63.2741H91.6105ZM104.177 63.4132C102.998 63.4132 101.965 63.1814 101.078 62.7178C100.203 62.2409 99.5211 61.5919 99.031 60.7706C98.5542 59.9494 98.3158 59.0156 98.3158 57.9691C98.3158 56.9095 98.5476 55.9756 99.0112 55.1676C99.488 54.3464 100.137 53.704 100.958 53.2404C101.793 52.7768 102.74 52.545 103.8 52.545C104.833 52.545 105.753 52.7701 106.561 53.2205C107.369 53.6709 108.005 54.3067 108.469 55.1279C108.932 55.9492 109.164 56.9161 109.164 58.0288C109.164 58.1347 109.157 58.2539 109.144 58.3864C109.144 58.5188 109.138 58.6447 109.124 58.7639H100.283V57.1148H107.813L106.839 57.6314C106.853 57.0221 106.727 56.4856 106.462 56.022C106.197 55.5584 105.833 55.1941 105.369 54.9292C104.919 54.6643 104.396 54.5318 103.8 54.5318C103.19 54.5318 102.654 54.6643 102.19 54.9292C101.74 55.1941 101.382 55.565 101.117 56.0419C100.866 56.5055 100.74 57.0552 100.74 57.691V58.0884C100.74 58.7242 100.885 59.2871 101.177 59.7772C101.468 60.2673 101.879 60.6448 102.409 60.9097C102.939 61.1746 103.548 61.3071 104.237 61.3071C104.833 61.3071 105.369 61.2144 105.846 61.0289C106.323 60.8435 106.747 60.5521 107.118 60.1547L108.449 61.6846C107.972 62.2409 107.369 62.6714 106.641 62.9761C105.926 63.2675 105.104 63.4132 104.177 63.4132ZM121.67 63.4728C119.763 63.4728 118.266 62.9363 117.18 61.8634C116.107 60.7905 115.571 59.2407 115.571 57.2141V49.366H118.153V57.1148C118.153 58.5453 118.458 59.5851 119.067 60.2342C119.69 60.8832 120.564 61.2078 121.69 61.2078C122.816 61.2078 123.684 60.8832 124.293 60.2342C124.902 59.5851 125.207 58.5453 125.207 57.1148V49.366H127.75V57.2141C127.75 59.2407 127.207 60.7905 126.121 61.8634C125.048 62.9363 123.564 63.4728 121.67 63.4728ZM133.613 63.4132C132.725 63.4132 131.871 63.3006 131.05 63.0754C130.242 62.837 129.599 62.5522 129.122 62.2211L130.076 60.3335C130.553 60.6382 131.122 60.8899 131.785 61.0885C132.447 61.2872 133.109 61.3866 133.772 61.3866C134.553 61.3866 135.116 61.2806 135.46 61.0687C135.818 60.8567 135.997 60.572 135.997 60.2143C135.997 59.9229 135.878 59.7044 135.639 59.5586C135.401 59.3997 135.09 59.2805 134.705 59.201C134.321 59.1215 133.891 59.0487 133.414 58.9825C132.95 58.9162 132.48 58.8301 132.003 58.7242C131.54 58.6049 131.116 58.4394 130.732 58.2274C130.348 58.0023 130.036 57.7042 129.798 57.3333C129.559 56.9625 129.44 56.4724 129.44 55.8631C129.44 55.1875 129.632 54.6047 130.016 54.1146C130.401 53.6113 130.937 53.2271 131.626 52.9622C132.328 52.6841 133.156 52.545 134.109 52.545C134.825 52.545 135.547 52.6244 136.275 52.7834C137.004 52.9423 137.606 53.1675 138.083 53.4589L137.129 55.3465C136.626 55.0418 136.116 54.8365 135.6 54.7305C135.096 54.6113 134.593 54.5517 134.09 54.5517C133.334 54.5517 132.772 54.6643 132.401 54.8895C132.043 55.1147 131.864 55.3995 131.864 55.7438C131.864 56.0617 131.983 56.3002 132.222 56.4591C132.46 56.6181 132.772 56.7439 133.156 56.8366C133.54 56.9293 133.964 57.0088 134.427 57.0751C134.904 57.128 135.374 57.2141 135.838 57.3333C136.302 57.4526 136.725 57.6181 137.11 57.8301C137.507 58.0288 137.825 58.3135 138.063 58.6844C138.302 59.0553 138.421 59.5388 138.421 60.1348C138.421 60.7971 138.222 61.3733 137.825 61.8634C137.441 62.3535 136.891 62.7377 136.176 63.0158C135.46 63.2807 134.606 63.4132 133.613 63.4132ZM144.752 63.4132C143.573 63.4132 142.54 63.1814 141.653 62.7178C140.778 62.2409 140.096 61.5919 139.606 60.7706C139.129 59.9494 138.891 59.0156 138.891 57.9691C138.891 56.9095 139.123 55.9756 139.586 55.1676C140.063 54.3464 140.712 53.704 141.533 53.2404C142.368 52.7768 143.315 52.545 144.375 52.545C145.408 52.545 146.328 52.7701 147.136 53.2205C147.944 53.6709 148.58 54.3067 149.044 55.1279C149.507 55.9492 149.739 56.9161 149.739 58.0288C149.739 58.1347 149.732 58.2539 149.719 58.3864C149.719 58.5188 149.713 58.6447 149.699 58.7639H140.858V57.1148H148.388L147.414 57.6314C147.428 57.0221 147.302 56.4856 147.037 56.022C146.772 55.5584 146.408 55.1941 145.944 54.9292C145.494 54.6643 144.971 54.5318 144.375 54.5318C143.765 54.5318 143.229 54.6643 142.765 54.9292C142.315 55.1941 141.957 55.565 141.692 56.0419C141.441 56.5055 141.315 57.0552 141.315 57.691V58.0884C141.315 58.7242 141.46 59.2871 141.752 59.7772C142.043 60.2673 142.454 60.6448 142.984 60.9097C143.514 61.1746 144.123 61.3071 144.812 61.3071C145.408 61.3071 145.944 61.2144 146.421 61.0289C146.898 60.8435 147.322 60.5521 147.693 60.1547L149.024 61.6846C148.547 62.2409 147.944 62.6714 147.216 62.9761C146.5 63.2675 145.679 63.4132 144.752 63.4132ZM151.33 63.2741V52.6642H153.694V55.5849L153.416 54.7305C153.734 54.0153 154.231 53.4722 154.906 53.1013C155.595 52.7304 156.45 52.545 157.469 52.545V54.9094C157.363 54.8829 157.264 54.8696 157.171 54.8696C157.079 54.8564 156.986 54.8497 156.893 54.8497C155.953 54.8497 155.204 55.1279 154.648 55.6842C154.092 56.2273 153.814 57.0419 153.814 58.1281V63.2741H151.33ZM162.157 63.4132C161.269 63.4132 160.415 63.3006 159.594 63.0754C158.786 62.837 158.143 62.5522 157.667 62.2211L158.62 60.3335C159.097 60.6382 159.667 60.8899 160.329 61.0885C160.991 61.2872 161.654 61.3866 162.316 61.3866C163.097 61.3866 163.66 61.2806 164.005 61.0687C164.362 60.8567 164.541 60.572 164.541 60.2143C164.541 59.9229 164.422 59.7044 164.184 59.5586C163.945 59.3997 163.634 59.2805 163.25 59.201C162.866 59.1215 162.435 59.0487 161.958 58.9825C161.495 58.9162 161.024 58.8301 160.548 58.7242C160.084 58.6049 159.66 58.4394 159.276 58.2274C158.892 58.0023 158.581 57.7042 158.342 57.3333C158.104 56.9625 157.984 56.4724 157.984 55.8631C157.984 55.1875 158.177 54.6047 158.561 54.1146C158.945 53.6113 159.481 53.2271 160.17 52.9622C160.872 52.6841 161.7 52.545 162.654 52.545C163.369 52.545 164.091 52.6244 164.819 52.7834C165.548 52.9423 166.151 53.1675 166.627 53.4589L165.674 55.3465C165.17 55.0418 164.66 54.8365 164.144 54.7305C163.64 54.6113 163.137 54.5517 162.634 54.5517C161.879 54.5517 161.316 54.6643 160.945 54.8895C160.587 55.1147 160.408 55.3995 160.408 55.7438C160.408 56.0617 160.528 56.3002 160.766 56.4591C161.005 56.6181 161.316 56.7439 161.7 56.8366C162.084 56.9293 162.508 57.0088 162.972 57.0751C163.448 57.128 163.919 57.2141 164.382 57.3333C164.846 57.4526 165.27 57.6181 165.654 57.8301C166.051 58.0288 166.369 58.3135 166.608 58.6844C166.846 59.0553 166.965 59.5388 166.965 60.1348C166.965 60.7971 166.766 61.3733 166.369 61.8634C165.985 62.3535 165.435 62.7377 164.72 63.0158C164.005 63.2807 163.15 63.4132 162.157 63.4132Z" fill="#585858"/>
</svg>
