<svg width="184" height="69" viewBox="0 0 184 69" fill="none" xmlns="http://www.w3.org/2000/svg">
<path d="M28.2726 1.85668C28.2298 1.76089 28.1601 1.67963 28.0719 1.62279C27.9837 1.56595 27.8809 1.536 27.7759 1.53657H12.3997C12.3074 1.53672 12.2165 1.56004 12.1355 1.6044C12.0545 1.64875 11.986 1.71272 11.9361 1.79045L0.114174 20.5554C0.0572598 20.6371 0.024007 20.7329 0.0180796 20.8323C0.0121522 20.9317 0.0337801 21.0309 0.0805807 21.1188C0.127381 21.2066 0.197538 21.2799 0.283319 21.3305C0.3691 21.3811 0.467176 21.407 0.566741 21.4053H9.03305L1.56018 36.031C1.51728 36.118 1.49711 36.2144 1.50157 36.3113C1.50602 36.4081 1.53495 36.5023 1.58566 36.585C1.63636 36.6677 1.70719 36.7361 1.79153 36.784C1.87586 36.8319 1.97096 36.8577 2.06794 36.8588H5.3794C5.45601 36.8594 5.53188 36.8439 5.60219 36.8135C5.67251 36.7831 5.73572 36.7384 5.78781 36.6822L25.182 15.7207C25.2589 15.6422 25.3108 15.5425 25.3307 15.4344C25.3507 15.3263 25.3379 15.2147 25.294 15.1139C25.2502 15.0131 25.1772 14.9277 25.0844 14.8686C24.9917 14.8096 24.8834 14.7795 24.7735 14.7824H17.3338L28.1843 2.4417C28.2543 2.3633 28.2999 2.26623 28.3156 2.16233C28.3313 2.05844 28.3163 1.95223 28.2726 1.85668Z" fill="#2B788B"/>
<path d="M39.6752 1.42455H75.0262V7.72328C68.6461 17.3911 63.7146 27.124 60.2316 36.9221H47.0482C50.5963 28.1006 55.2674 19.3279 61.0616 10.6041C52.0448 10.6041 44.916 10.7669 39.6752 11.0924V1.42455Z" fill="black"/>
<path d="M93.2278 37.4103C86.2292 37.4103 81.0698 35.799 77.7495 32.5764C74.4292 29.3538 72.7691 24.878 72.7691 19.1489C72.7691 13.4524 74.4292 9.00907 77.7495 5.81902C81.1023 2.59641 86.2617 0.985107 93.2278 0.985107C100.194 0.985107 105.337 2.59641 108.657 5.81902C111.977 9.00907 113.638 13.4524 113.638 19.1489C113.638 24.878 111.977 29.3538 108.657 32.5764C105.337 35.799 100.194 37.4103 93.2278 37.4103ZM93.2766 28.8655C96.2714 28.8655 98.4523 27.9541 99.8195 26.1312C101.187 24.2758 101.87 21.9483 101.87 19.1489C101.87 16.382 101.187 14.0871 99.8195 12.2642C98.4523 10.4088 96.2714 9.48107 93.2766 9.48107C90.1842 9.48107 87.9382 10.4088 86.5384 12.2642C85.1713 14.0871 84.4877 16.382 84.4877 19.1489C84.4877 21.9158 85.1713 24.2269 86.5384 26.0824C87.9382 27.9378 90.1842 28.8655 93.2766 28.8655Z" fill="black"/>
<path d="M136.049 37.4103C129.05 37.4103 123.891 35.799 120.571 32.5764C117.25 29.3538 115.59 24.878 115.59 19.1489C115.59 13.4524 117.25 9.00907 120.571 5.81902C123.924 2.59641 129.083 0.985107 136.049 0.985107C143.015 0.985107 148.158 2.59641 151.478 5.81902C154.799 9.00907 156.459 13.4524 156.459 19.1489C156.459 24.878 154.799 29.3538 151.478 32.5764C148.158 35.799 143.015 37.4103 136.049 37.4103ZM136.098 28.8655C139.093 28.8655 141.274 27.9541 142.641 26.1312C144.008 24.2758 144.691 21.9483 144.691 19.1489C144.691 16.382 144.008 14.0871 142.641 12.2642C141.274 10.4088 139.093 9.48107 136.098 9.48107C133.005 9.48107 130.759 10.4088 129.36 12.2642C127.992 14.0871 127.309 16.382 127.309 19.1489C127.309 21.9158 127.992 24.2269 129.36 26.0824C130.759 27.9378 133.005 28.8655 136.098 28.8655Z" fill="black"/>
<path d="M175.208 15.5357H183.899V25.057H175.208V33.7971H165.687V25.057H156.947V15.5357H165.687V6.79557H175.208V15.5357Z" fill="black"/>
<path d="M23.1014 47.3406H25.6843V61.2487H23.1014V47.3406ZM15.9089 61.2487H13.3259V47.3406H15.9089V61.2487ZM23.3001 55.2881H15.6903V53.0827H23.3001V55.2881ZM33.1464 61.3878C32.0603 61.3878 31.0933 61.156 30.2456 60.6924C29.3979 60.2155 28.729 59.5665 28.2389 58.7453C27.7488 57.924 27.5037 56.9902 27.5037 55.9438C27.5037 54.8841 27.7488 53.9503 28.2389 53.1423C28.729 52.321 29.3979 51.6786 30.2456 51.215C31.0933 50.7514 32.0603 50.5196 33.1464 50.5196C34.2459 50.5196 35.2194 50.7514 36.0672 51.215C36.9281 51.6786 37.5971 52.3144 38.0739 53.1224C38.564 53.9304 38.8091 54.8708 38.8091 55.9438C38.8091 56.9902 38.564 57.924 38.0739 58.7453C37.5971 59.5665 36.9281 60.2155 36.0672 60.6924C35.2194 61.156 34.2459 61.3878 33.1464 61.3878ZM33.1464 59.2618C33.7558 59.2618 34.2988 59.1294 34.7757 58.8645C35.2525 58.5995 35.6234 58.2154 35.8883 57.7121C36.1665 57.2087 36.3056 56.6193 36.3056 55.9438C36.3056 55.255 36.1665 54.6655 35.8883 54.1754C35.6234 53.6721 35.2525 53.288 34.7757 53.023C34.2988 52.7581 33.7624 52.6257 33.1663 52.6257C32.557 52.6257 32.0139 52.7581 31.5371 53.023C31.0735 53.288 30.7026 53.6721 30.4244 54.1754C30.1463 54.6655 30.0072 55.255 30.0072 55.9438C30.0072 56.6193 30.1463 57.2087 30.4244 57.7121C30.7026 58.2154 31.0735 58.5995 31.5371 58.8645C32.0139 59.1294 32.5504 59.2618 33.1464 59.2618ZM44.8796 61.3878C43.9789 61.3878 43.1841 61.2222 42.4953 60.8911C41.8065 60.5467 41.2701 60.0301 40.886 59.3413C40.5018 58.6393 40.3098 57.7584 40.3098 56.6988V50.6388H42.7934V56.361C42.7934 57.3147 43.0053 58.03 43.4292 58.5068C43.8663 58.9704 44.4822 59.2022 45.277 59.2022C45.8598 59.2022 46.3631 59.083 46.787 58.8446C47.2241 58.6062 47.5619 58.2485 47.8003 57.7717C48.052 57.2948 48.1778 56.7054 48.1778 56.0034V50.6388H50.6614V61.2487H48.297V58.3876L48.7143 59.2618C48.3566 59.9506 47.8334 60.4805 47.1446 60.8513C46.4558 61.209 45.7008 61.3878 44.8796 61.3878ZM53.1184 61.2487V50.6388H55.4828V53.5595L55.2047 52.7051C55.5226 51.9899 56.0193 51.4468 56.6948 51.0759C57.3836 50.705 58.238 50.5196 59.2579 50.5196V52.884C59.1519 52.8575 59.0526 52.8442 58.9599 52.8442C58.8671 52.831 58.7744 52.8244 58.6817 52.8244C57.7413 52.8244 56.9929 53.1025 56.4365 53.6588C55.8802 54.2019 55.602 55.0165 55.602 56.1027V61.2487H53.1184ZM63.9454 61.3878C63.0579 61.3878 62.2036 61.2752 61.3823 61.05C60.5743 60.8116 59.9319 60.5268 59.455 60.1957L60.4087 58.3081C60.8856 58.6128 61.4552 58.8645 62.1175 59.0632C62.7797 59.2618 63.442 59.3612 64.1043 59.3612C64.8858 59.3612 65.4488 59.2552 65.7932 59.0433C66.1508 58.8314 66.3296 58.5466 66.3296 58.1889C66.3296 57.8975 66.2104 57.679 65.972 57.5333C65.7336 57.3743 65.4223 57.2551 65.0382 57.1756C64.654 57.0961 64.2235 57.0233 63.7467 56.9571C63.2831 56.8908 62.8129 56.8047 62.336 56.6988C61.8724 56.5796 61.4485 56.414 61.0644 56.202C60.6803 55.9769 60.369 55.6788 60.1306 55.308C59.8921 54.9371 59.7729 54.447 59.7729 53.8377C59.7729 53.1621 59.965 52.5793 60.3491 52.0892C60.7333 51.5859 61.2697 51.2017 61.9585 50.9368C62.6605 50.6587 63.4884 50.5196 64.4421 50.5196C65.1574 50.5196 65.8793 50.5991 66.6078 50.758C67.3363 50.917 67.939 51.1421 68.4159 51.4335L67.4622 53.3211C66.9588 53.0164 66.4488 52.8111 65.9323 52.7051C65.4289 52.5859 64.9256 52.5263 64.4222 52.5263C63.6672 52.5263 63.1043 52.6389 62.7334 52.8641C62.3757 53.0893 62.1969 53.3741 62.1969 53.7185C62.1969 54.0364 62.3161 54.2748 62.5546 54.4337C62.793 54.5927 63.1043 54.7185 63.4884 54.8112C63.8725 54.904 64.2964 54.9834 64.76 55.0497C65.2369 55.1026 65.7071 55.1887 66.1707 55.308C66.6343 55.4272 67.0582 55.5927 67.4423 55.8047C67.8397 56.0034 68.1576 56.2881 68.396 56.659C68.6344 57.0299 68.7536 57.5134 68.7536 58.1095C68.7536 58.7717 68.5549 59.3479 68.1576 59.838C67.7734 60.3281 67.2237 60.7123 66.5085 60.9904C65.7932 61.2553 64.9388 61.3878 63.9454 61.3878ZM79.5625 61.3878C78.4764 61.3878 77.5094 61.156 76.6617 60.6924C75.814 60.2155 75.1451 59.5665 74.655 58.7453C74.1649 57.924 73.9198 56.9902 73.9198 55.9438C73.9198 54.8841 74.1649 53.9503 74.655 53.1423C75.1451 52.321 75.814 51.6786 76.6617 51.215C77.5094 50.7514 78.4764 50.5196 79.5625 50.5196C80.662 50.5196 81.6355 50.7514 82.4833 51.215C83.3442 51.6786 84.0132 52.3144 84.49 53.1224C84.9801 53.9304 85.2252 54.8708 85.2252 55.9438C85.2252 56.9902 84.9801 57.924 84.49 58.7453C84.0132 59.5665 83.3442 60.2155 82.4833 60.6924C81.6355 61.156 80.662 61.3878 79.5625 61.3878ZM79.5625 59.2618C80.1719 59.2618 80.7149 59.1294 81.1918 58.8645C81.6686 58.5995 82.0395 58.2154 82.3044 57.7121C82.5826 57.2087 82.7217 56.6193 82.7217 55.9438C82.7217 55.255 82.5826 54.6655 82.3044 54.1754C82.0395 53.6721 81.6686 53.288 81.1918 53.023C80.7149 52.7581 80.1785 52.6257 79.5824 52.6257C78.9731 52.6257 78.43 52.7581 77.9532 53.023C77.4896 53.288 77.1187 53.6721 76.8405 54.1754C76.5624 54.6655 76.4233 55.255 76.4233 55.9438C76.4233 56.6193 76.5624 57.2087 76.8405 57.7121C77.1187 58.2154 77.4896 58.5995 77.9532 58.8645C78.43 59.1294 78.9665 59.2618 79.5625 59.2618ZM87.1431 61.2487V50.0427C87.1431 48.9301 87.4676 48.0426 88.1167 47.3803C88.779 46.7048 89.7194 46.367 90.938 46.367C91.3752 46.367 91.7858 46.4134 92.1699 46.5061C92.5673 46.5988 92.8984 46.7445 93.1633 46.9432L92.4878 48.8109C92.3024 48.6652 92.0904 48.5592 91.852 48.493C91.6136 48.4135 91.3685 48.3738 91.1169 48.3738C90.6003 48.3738 90.2095 48.5195 89.9446 48.8109C89.6797 49.089 89.5472 49.5129 89.5472 50.0825V51.2746L89.6267 52.3872V61.2487H87.1431ZM85.3947 52.7051V50.7183H92.4679V52.7051H85.3947ZM102.909 61.3878C101.796 61.3878 100.803 61.156 99.9288 60.6924C99.0678 60.2155 98.3923 59.5665 97.9022 58.7453C97.4121 57.924 97.1671 56.9902 97.1671 55.9438C97.1671 54.8841 97.4121 53.9503 97.9022 53.1423C98.3923 52.321 99.0678 51.6786 99.9288 51.215C100.803 50.7514 101.796 50.5196 102.909 50.5196C103.942 50.5196 104.85 50.7315 105.631 51.1554C106.426 51.566 107.029 52.1753 107.439 52.9833L105.532 54.096C105.214 53.5926 104.823 53.2217 104.36 52.9833C103.909 52.7449 103.419 52.6257 102.889 52.6257C102.28 52.6257 101.73 52.7581 101.24 53.023C100.75 53.288 100.366 53.6721 100.088 54.1754C99.8096 54.6655 99.6705 55.255 99.6705 55.9438C99.6705 56.6325 99.8096 57.2286 100.088 57.7319C100.366 58.222 100.75 58.5995 101.24 58.8645C101.73 59.1294 102.28 59.2618 102.889 59.2618C103.419 59.2618 103.909 59.1426 104.36 58.9042C104.823 58.6658 105.214 58.2949 105.532 57.7916L107.439 58.9042C107.029 59.699 106.426 60.3149 105.631 60.752C104.85 61.1759 103.942 61.3878 102.909 61.3878ZM113.405 61.3878C112.319 61.3878 111.352 61.156 110.504 60.6924C109.656 60.2155 108.987 59.5665 108.497 58.7453C108.007 57.924 107.762 56.9902 107.762 55.9438C107.762 54.8841 108.007 53.9503 108.497 53.1423C108.987 52.321 109.656 51.6786 110.504 51.215C111.352 50.7514 112.319 50.5196 113.405 50.5196C114.504 50.5196 115.478 50.7514 116.325 51.215C117.186 51.6786 117.855 52.3144 118.332 53.1224C118.822 53.9304 119.067 54.8708 119.067 55.9438C119.067 56.9902 118.822 57.924 118.332 58.7453C117.855 59.5665 117.186 60.2155 116.325 60.6924C115.478 61.156 114.504 61.3878 113.405 61.3878ZM113.405 59.2618C114.014 59.2618 114.557 59.1294 115.034 58.8645C115.511 58.5995 115.882 58.2154 116.147 57.7121C116.425 57.2087 116.564 56.6193 116.564 55.9438C116.564 55.255 116.425 54.6655 116.147 54.1754C115.882 53.6721 115.511 53.288 115.034 53.023C114.557 52.7581 114.021 52.6257 113.425 52.6257C112.815 52.6257 112.272 52.7581 111.795 53.023C111.332 53.288 110.961 53.6721 110.683 54.1754C110.404 54.6655 110.265 55.255 110.265 55.9438C110.265 56.6193 110.404 57.2087 110.683 57.7121C110.961 58.2154 111.332 58.5995 111.795 58.8645C112.272 59.1294 112.809 59.2618 113.405 59.2618ZM126.668 50.5196C127.515 50.5196 128.27 50.6852 128.933 51.0163C129.608 51.3474 130.138 51.8574 130.522 52.5462C130.906 53.2217 131.098 54.096 131.098 55.1689V61.2487H128.615V55.4868C128.615 54.5463 128.39 53.8443 127.939 53.3807C127.502 52.9171 126.886 52.6853 126.091 52.6853C125.509 52.6853 124.992 52.8045 124.542 53.0429C124.091 53.2813 123.74 53.639 123.489 54.1158C123.25 54.5794 123.131 55.1689 123.131 55.8841V61.2487H120.647V50.6388H123.012V53.4999L122.595 52.6257C122.965 51.9501 123.502 51.4335 124.204 51.0759C124.919 50.705 125.74 50.5196 126.668 50.5196ZM137.448 61.3878C136.282 61.3878 135.382 61.0898 134.746 60.4937C134.11 59.8844 133.792 58.9903 133.792 57.8114V48.2943H136.276V57.7518C136.276 58.2552 136.401 58.6459 136.653 58.9241C136.918 59.2022 137.282 59.3413 137.746 59.3413C138.302 59.3413 138.766 59.1956 139.137 58.9042L139.832 60.6725C139.541 60.9109 139.183 61.0898 138.759 61.209C138.335 61.3282 137.898 61.3878 137.448 61.3878ZM132.044 52.7051V50.7183H139.117V52.7051H132.044ZM145.718 61.3878C144.539 61.3878 143.506 61.156 142.619 60.6924C141.745 60.2155 141.062 59.5665 140.572 58.7453C140.095 57.924 139.857 56.9902 139.857 55.9438C139.857 54.8841 140.089 53.9503 140.552 53.1423C141.029 52.321 141.678 51.6786 142.5 51.215C143.334 50.7514 144.281 50.5196 145.341 50.5196C146.374 50.5196 147.295 50.7448 148.103 51.1951C148.911 51.6455 149.546 52.2813 150.01 53.1025C150.474 53.9238 150.705 54.8907 150.705 56.0034C150.705 56.1093 150.699 56.2285 150.685 56.361C150.685 56.4935 150.679 56.6193 150.666 56.7385H141.824V55.0894H149.354L148.381 55.606C148.394 54.9967 148.268 54.4602 148.003 53.9966C147.738 53.533 147.374 53.1687 146.91 52.9038C146.46 52.6389 145.937 52.5065 145.341 52.5065C144.731 52.5065 144.195 52.6389 143.731 52.9038C143.281 53.1687 142.923 53.5396 142.658 54.0165C142.407 54.4801 142.281 55.0298 142.281 55.6656V56.063C142.281 56.6988 142.427 57.2617 142.718 57.7518C143.01 58.2419 143.42 58.6194 143.95 58.8843C144.48 59.1493 145.089 59.2817 145.778 59.2817C146.374 59.2817 146.91 59.189 147.387 59.0035C147.864 58.8181 148.288 58.5267 148.659 58.1293L149.99 59.6592C149.513 60.2155 148.911 60.646 148.182 60.9507C147.467 61.2421 146.645 61.3878 145.718 61.3878ZM158.316 50.5196C159.164 50.5196 159.919 50.6852 160.582 51.0163C161.257 51.3474 161.787 51.8574 162.171 52.5462C162.555 53.2217 162.747 54.096 162.747 55.1689V61.2487H160.264V55.4868C160.264 54.5463 160.038 53.8443 159.588 53.3807C159.151 52.9171 158.535 52.6853 157.74 52.6853C157.157 52.6853 156.641 52.8045 156.191 53.0429C155.74 53.2813 155.389 53.639 155.137 54.1158C154.899 54.5794 154.78 55.1689 154.78 55.8841V61.2487H152.296V50.6388H154.661V53.4999L154.243 52.6257C154.614 51.9501 155.151 51.4335 155.853 51.0759C156.568 50.705 157.389 50.5196 158.316 50.5196ZM169.097 61.3878C167.931 61.3878 167.03 61.0898 166.395 60.4937C165.759 59.8844 165.441 58.9903 165.441 57.8114V48.2943H167.924V57.7518C167.924 58.2552 168.05 58.6459 168.302 58.9241C168.567 59.2022 168.931 59.3413 169.395 59.3413C169.951 59.3413 170.415 59.1956 170.786 58.9042L171.481 60.6725C171.19 60.9109 170.832 61.0898 170.408 61.209C169.984 61.3282 169.547 61.3878 169.097 61.3878ZM163.692 52.7051V50.7183H170.766V52.7051H163.692Z" fill="#585858"/>
</svg>
